<svg width="20" height="20" viewBox="0 0 20 20" fill="none" xmlns="http://www.w3.org/2000/svg">
<path d="M15.8328 8.08708V7.50033C15.8328 4.27866 13.2211 1.66699 9.99948 1.66699C6.77782 1.66699 4.16615 4.27866 4.16615 7.50033V8.08708C4.16615 8.79124 3.95772 9.47964 3.56712 10.0655L2.60995 11.5013C1.73567 12.8127 2.40311 14.5953 3.9237 15.01C7.90158 16.0948 12.0974 16.0948 16.0753 15.01C17.5959 14.5953 18.2633 12.8127 17.389 11.5013L16.4318 10.0655C16.0412 9.47964 15.8328 8.79124 15.8328 8.08708Z" stroke="#1C1B17" stroke-width="1.25"/>
<path d="M8.33301 7.5H11.6663L8.33301 10.8333H11.6663" stroke="#1C1B17" stroke-width="1.25" stroke-linecap="round" stroke-linejoin="round"/>
<path d="M6.25 15.833C6.79586 17.2895 8.26871 18.333 10 18.333C11.7313 18.333 13.2041 17.2895 13.75 15.833" stroke="#1C1B17" stroke-width="1.25" stroke-linecap="round"/>
</svg>
