<svg width="20" height="20" viewBox="0 0 20 20" fill="none" xmlns="http://www.w3.org/2000/svg">
<path d="M7.50033 18.3337H12.5003C16.667 18.3337 18.3337 16.667 18.3337 12.5003V7.50033C18.3337 3.33366 16.667 1.66699 12.5003 1.66699H7.50033C3.33366 1.66699 1.66699 3.33366 1.66699 7.50033V12.5003C1.66699 16.667 3.33366 18.3337 7.50033 18.3337Z" stroke="#1C1B17" stroke-width="1.25" stroke-linecap="round" stroke-linejoin="round"/>
<path d="M14.1663 2.0332V10.3499C14.1663 11.9915 12.9913 12.6332 11.5497 11.7665L10.4497 11.1082C10.1997 10.9582 9.79967 10.9582 9.54967 11.1082L8.44967 11.7665C7.00801 12.6249 5.83301 11.9915 5.83301 10.3499V2.0332" stroke="#1C1B17" stroke-width="1.25" stroke-linecap="round" stroke-linejoin="round"/>
<path d="M7.50033 18.3337H12.5003C16.667 18.3337 18.3337 16.667 18.3337 12.5003V7.50033C18.3337 3.33366 16.667 1.66699 12.5003 1.66699H7.50033C3.33366 1.66699 1.66699 3.33366 1.66699 7.50033V12.5003C1.66699 16.667 3.33366 18.3337 7.50033 18.3337Z" stroke="#1C1B17" stroke-width="1.25" stroke-linecap="round" stroke-linejoin="round"/>
<path d="M14.1663 2.0332V10.3499C14.1663 11.9915 12.9913 12.6332 11.5497 11.7665L10.4497 11.1082C10.1997 10.9582 9.79967 10.9582 9.54967 11.1082L8.44967 11.7665C7.00801 12.6249 5.83301 11.9915 5.83301 10.3499V2.0332" stroke="#1C1B17" stroke-width="1.25" stroke-linecap="round" stroke-linejoin="round"/>
</svg>
