<svg width="18" height="18" viewBox="0 0 18 18" fill="none" xmlns="http://www.w3.org/2000/svg">
<path d="M5.37109 8.1709C5.9084 8.1709 6.34473 8.60784 6.34473 9.14355C6.34449 9.68066 5.90825 10.1172 5.37109 10.1172C4.83402 10.1171 4.3977 9.6806 4.39746 9.14355C4.39746 8.6079 4.83387 8.17099 5.37109 8.1709ZM9.15723 8.1709C9.69442 8.17103 10.1309 8.60792 10.1309 9.14355C10.1306 9.68058 9.69427 10.1171 9.15723 10.1172C8.62007 10.1172 8.18383 9.68066 8.18359 9.14355C8.18359 8.60784 8.61992 8.1709 9.15723 8.1709ZM12.9424 8.1709C13.4797 8.1709 13.917 8.60784 13.917 9.14355C13.9168 9.68066 13.4795 10.1172 12.9424 10.1172C12.4054 10.117 11.969 9.68053 11.9688 9.14355C11.9688 8.60797 12.4053 8.17111 12.9424 8.1709Z" fill="#1C1B17"/>
<path fill-rule="evenodd" clip-rule="evenodd" d="M8.975 0.625C4.13333 0.625 0.625 4.5801 0.625 8.97085C0.625 10.373 1.03333 11.816 1.75 13.1346C1.88333 13.3524 1.9 13.627 1.80833 13.8866L1.25 15.756C1.125 16.2067 1.50833 16.5397 1.93333 16.4062L3.61667 15.9063C4.075 15.756 4.43333 15.9471 4.85833 16.2067C6.075 16.9236 7.59167 17.2917 8.95833 17.2917C13.0917 17.2917 17.2917 14.0952 17.2917 8.94581C17.2917 4.50499 13.7083 0.625 8.975 0.625Z" stroke="#1C1B17" stroke-width="1.25" stroke-linecap="round" stroke-linejoin="round"/>
</svg>
