<svg width="20" height="20" viewBox="0 0 20 20" fill="none" xmlns="http://www.w3.org/2000/svg">
<path d="M4.9998 18.9581C4.7498 18.9581 4.48313 18.9331 4.21646 18.8831C4.07479 18.8498 3.94979 18.8165 3.82479 18.7831C3.68313 18.7415 3.54978 18.6915 3.42478 18.6415C3.39145 18.6331 3.36647 18.6165 3.34147 18.6081C3.0498 18.4581 2.79979 18.3081 2.57479 18.1415C2.55813 18.1331 2.5498 18.1165 2.53314 18.1081C2.40814 18.0081 2.29146 17.9081 2.18313 17.7915C2.06646 17.6665 1.98312 17.5665 1.89145 17.4665C1.69979 17.2165 1.54146 16.9665 1.39979 16.6748C1.38312 16.6498 1.37481 16.6165 1.36648 16.5831C1.31648 16.4665 1.27479 16.3498 1.24146 16.2248C1.19146 16.0498 1.15812 15.9331 1.13312 15.8081C1.07478 15.5165 1.0498 15.2581 1.0498 15.0081V3.75814C1.0498 2.16647 2.16647 1.0498 3.75814 1.0498H6.25814C7.8498 1.0498 8.96647 2.16647 8.96647 3.75814V14.9998C8.96647 16.0331 8.56647 17.0165 7.84147 17.7581C7.70813 17.8915 7.60812 17.9831 7.51645 18.0581C7.24979 18.2915 6.90813 18.4998 6.54147 18.6498C6.45813 18.6831 6.35813 18.7248 6.2498 18.7665C5.84146 18.8915 5.41646 18.9581 4.9998 18.9581ZM3.94979 17.4998C4.03312 17.5331 4.11647 17.5581 4.1998 17.5831C4.29147 17.6081 4.38313 17.6331 4.47479 17.6581C4.93313 17.7415 5.42481 17.7165 5.81647 17.5831C5.87481 17.5581 5.95812 17.5331 6.03312 17.4998C6.29979 17.3915 6.51645 17.2581 6.70812 17.0998C6.79145 17.0331 6.8498 16.9748 6.90814 16.9248C7.43314 16.3831 7.70813 15.7165 7.70813 15.0081V3.75814C7.70813 2.85814 7.1498 2.2998 6.2498 2.2998H3.7498C2.8498 2.2998 2.29146 2.85814 2.29146 3.75814V14.9998C2.29146 15.1748 2.30814 15.3581 2.3498 15.5498C2.36647 15.6248 2.39146 15.7165 2.41646 15.8165C2.44979 15.9081 2.4748 15.9831 2.50814 16.0665C2.5248 16.0915 2.53312 16.1165 2.54145 16.1331C2.54979 16.1498 2.55812 16.1748 2.56645 16.1915C2.66645 16.3748 2.76647 16.5331 2.87481 16.6748C2.93314 16.7415 3.00814 16.8248 3.08314 16.9081C3.17481 17.0081 3.2498 17.0665 3.33313 17.1331C3.34146 17.1415 3.35814 17.1498 3.36647 17.1581C3.4998 17.2581 3.64979 17.3498 3.82479 17.4415C3.84146 17.4498 3.85812 17.4498 3.87479 17.4581C3.89146 17.4665 3.91646 17.4831 3.94979 17.4998Z" fill="#292D32"/>
<path d="M16.25 18.9581H5C4.65833 18.9581 4.375 18.6748 4.375 18.3331C4.375 17.9915 4.65833 17.7081 5 17.7081C5.29167 17.7081 5.57501 17.6665 5.81668 17.5831C5.87501 17.5581 5.95833 17.5331 6.03333 17.4998C6.29999 17.3915 6.51666 17.2581 6.70832 17.0998C6.79166 17.0331 6.85001 16.9748 6.90834 16.9248L12.6083 11.2331C12.725 11.1165 12.8833 11.0498 13.05 11.0498H16.25C17.8417 11.0498 18.9583 12.1665 18.9583 13.7581V16.2581C18.9583 17.8415 17.8417 18.9581 16.25 18.9581ZM7.88333 17.7081H16.25C17.15 17.7081 17.7083 17.1498 17.7083 16.2498V13.7498C17.7083 12.8498 17.15 12.2915 16.25 12.2915H13.3083L7.88333 17.7081Z" fill="#292D32"/>
<path d="M4.00883 18.8087C3.95049 18.8087 3.89217 18.8003 3.83383 18.7837C3.21717 18.6004 2.65051 18.2587 2.20051 17.8004C1.75051 17.3587 1.40883 16.792 1.2255 16.1754C1.1255 15.842 1.30883 15.5004 1.64216 15.4004C1.9755 15.3004 2.31716 15.4837 2.4255 15.8087C2.69216 16.6587 3.35882 17.3254 4.20882 17.592C4.53382 17.692 4.71717 18.042 4.61717 18.3754C4.5255 18.6337 4.27549 18.8087 4.00883 18.8087Z" fill="#292D32"/>
<path d="M7.38299 17.9499C7.22465 17.9499 7.06632 17.8916 6.94132 17.7666C6.69965 17.5249 6.69134 17.1333 6.933 16.8833C7.433 16.3749 7.708 15.6999 7.708 14.9916V6.94161C7.708 6.77494 7.77467 6.61661 7.89133 6.49994L10.1497 4.2416C11.2413 3.14993 12.8913 3.14993 13.983 4.2416L15.7497 6.00828C16.8747 7.13328 16.8747 8.7166 15.7497 9.8416L7.82468 17.7583C7.69968 17.8916 7.54132 17.9499 7.38299 17.9499ZM8.958 7.20827V14.8666L14.8663 8.9666C15.4997 8.33327 15.4997 7.5416 14.8663 6.89994L13.0997 5.13327C12.4747 4.50827 11.658 4.50827 11.033 5.13327L8.958 7.20827Z" fill="#292D32"/>
<path d="M5.00033 16.4587C4.20033 16.4587 3.54199 15.8003 3.54199 15.0003C3.54199 14.2003 4.20033 13.542 5.00033 13.542C5.80033 13.542 6.45866 14.2003 6.45866 15.0003C6.45866 15.8003 5.80033 16.4587 5.00033 16.4587ZM5.00033 14.792C4.88366 14.792 4.79199 14.8837 4.79199 15.0003C4.79199 15.2337 5.20866 15.2337 5.20866 15.0003C5.20866 14.8837 5.11699 14.792 5.00033 14.792Z" fill="#292D32"/>
</svg>
