<svg width="16" height="16" viewBox="0 0 16 16" fill="none" xmlns="http://www.w3.org/2000/svg">
<path d="M10.4752 11.1814L4.81832 5.52453C4.62505 5.33125 4.62505 5.0107 4.81832 4.81742C5.0116 4.62414 5.33215 4.62414 5.52543 4.81742L11.1823 10.4743C11.3756 10.6675 11.3756 10.9881 11.1823 11.1814C10.989 11.3747 10.6685 11.3747 10.4752 11.1814Z" fill="#1C1B17"/>
<path d="M4.81772 11.1814C4.62444 10.9881 4.62444 10.6675 4.81772 10.4743L10.4746 4.81742C10.6678 4.62414 10.9884 4.62414 11.1817 4.81742C11.375 5.0107 11.375 5.33125 11.1817 5.52453L5.52482 11.1814C5.33155 11.3747 5.01099 11.3747 4.81772 11.1814Z" fill="#1C1B17"/>
</svg>
