<svg width="20" height="20" viewBox="0 0 20 20" fill="none" xmlns="http://www.w3.org/2000/svg">
<path d="M17.5582 4.35863C16.2166 4.2253 14.8749 4.1253 13.5249 4.0503V4.04197L13.3416 2.95864C13.2166 2.19198 13.0333 1.04199 11.0833 1.04199H8.89999C6.95834 1.04199 6.77501 2.14198 6.64167 2.95031L6.46668 4.01697C5.69168 4.06697 4.91669 4.11697 4.1417 4.19197L2.44171 4.35863C2.09171 4.39196 1.84172 4.70029 1.87505 5.04196C1.90838 5.38362 2.20838 5.63362 2.55838 5.60029L4.25836 5.43362C8.62499 5.00029 13.025 5.16696 17.4416 5.60862C17.4666 5.60862 17.4832 5.60862 17.5082 5.60862C17.8249 5.60862 18.0999 5.36696 18.1332 5.04196C18.1582 4.70029 17.9082 4.39196 17.5582 4.35863Z" fill="#292D32"/>
<path d="M16.0253 6.78301C15.8253 6.57467 15.5503 6.45801 15.267 6.45801H4.73377C4.45044 6.45801 4.1671 6.57467 3.97544 6.78301C3.78377 6.99134 3.67544 7.27467 3.69211 7.56633L4.20877 16.1163C4.30044 17.3829 4.4171 18.9662 7.32541 18.9662H12.6754C15.5837 18.9662 15.7003 17.3912 15.792 16.1163L16.3087 7.57466C16.3253 7.27467 16.217 6.99134 16.0253 6.78301ZM11.3837 14.7913H8.60873C8.26707 14.7913 7.98374 14.5079 7.98374 14.1663C7.98374 13.8246 8.26707 13.5413 8.60873 13.5413H11.3837C11.7254 13.5413 12.0087 13.8246 12.0087 14.1663C12.0087 14.5079 11.7254 14.7913 11.3837 14.7913ZM12.0837 11.458H7.91707C7.57541 11.458 7.29208 11.1746 7.29208 10.833C7.29208 10.4913 7.57541 10.208 7.91707 10.208H12.0837C12.4254 10.208 12.7087 10.4913 12.7087 10.833C12.7087 11.1746 12.4254 11.458 12.0837 11.458Z" fill="#292D32"/>
</svg>
