<svg width="16" height="16" viewBox="0 0 16 16" fill="none" xmlns="http://www.w3.org/2000/svg">
<path d="M13.667 6.79301H11.7403C10.1603 6.79301 8.87366 5.50634 8.87366 3.92634V1.99967C8.87366 1.63301 8.57366 1.33301 8.20699 1.33301H5.38033C3.32699 1.33301 1.66699 2.66634 1.66699 5.04634V10.953C1.66699 13.333 3.32699 14.6663 5.38033 14.6663H10.6203C12.6737 14.6663 14.3337 13.333 14.3337 10.953V7.45967C14.3337 7.09301 14.0337 6.79301 13.667 6.79301ZM8.18699 10.5197L6.85366 11.853C6.80699 11.8997 6.74699 11.9397 6.68699 11.9597C6.62699 11.9863 6.56699 11.9997 6.50033 11.9997C6.43366 11.9997 6.37366 11.9863 6.31366 11.9597C6.26033 11.9397 6.20699 11.8997 6.16699 11.8597C6.16033 11.853 6.15366 11.853 6.15366 11.8463L4.82033 10.513C4.62699 10.3197 4.62699 9.99967 4.82033 9.80634C5.01366 9.61301 5.33366 9.61301 5.52699 9.80634L6.00033 10.293V7.49967C6.00033 7.22634 6.22699 6.99967 6.50033 6.99967C6.77366 6.99967 7.00033 7.22634 7.00033 7.49967V10.293L7.48033 9.81301C7.67366 9.61967 7.99366 9.61967 8.18699 9.81301C8.38032 10.0063 8.38032 10.3263 8.18699 10.5197Z" fill="white"/>
<path d="M11.6204 5.87365C12.2538 5.88032 13.1338 5.88032 13.8871 5.88032C14.2671 5.88032 14.4671 5.43365 14.2004 5.16699C13.2404 4.20032 11.5204 2.46032 10.5338 1.47365C10.2604 1.20032 9.78711 1.38699 9.78711 1.76699V4.09365C9.78711 5.06699 10.6138 5.87365 11.6204 5.87365Z" fill="white"/>
</svg>
