<svg width="20" height="20" viewBox="0 0 20 20" fill="none" xmlns="http://www.w3.org/2000/svg">
<path d="M17.4999 18.3331H2.49999C2.15833 18.3331 1.875 18.0498 1.875 17.7081C1.875 17.3665 2.15833 17.0831 2.49999 17.0831H17.4999C17.8415 17.0831 18.1249 17.3665 18.1249 17.7081C18.1249 18.0498 17.8415 18.3331 17.4999 18.3331Z" fill="#1C1B17"/>
<path d="M15.8494 2.89992C14.2328 1.28326 12.6495 1.2416 10.9911 2.89992L9.98282 3.90824C9.89949 3.99157 9.86616 4.12491 9.89949 4.24157C10.5328 6.44989 12.2995 8.21654 14.5078 8.84987C14.5411 8.8582 14.5745 8.86653 14.6078 8.86653C14.6995 8.86653 14.7828 8.8332 14.8494 8.76653L15.8494 7.75821C16.6744 6.94155 17.0744 6.14989 17.0744 5.3499C17.0828 4.5249 16.6828 3.72491 15.8494 2.89992Z" fill="#1C1B17"/>
<path d="M13.0079 9.60825C12.7662 9.49159 12.5329 9.37492 12.3079 9.24159C12.1245 9.13326 11.9495 9.01659 11.7745 8.89159C11.6329 8.79993 11.4662 8.66659 11.3079 8.53326C11.2912 8.52493 11.2329 8.47493 11.1662 8.40826C10.8912 8.17493 10.5829 7.87493 10.3079 7.5416C10.2829 7.52494 10.2412 7.4666 10.1829 7.39161C10.0996 7.29161 9.95789 7.12494 9.83289 6.93328C9.73289 6.80828 9.61622 6.62495 9.50789 6.44161C9.37456 6.21662 9.25789 5.99162 9.14123 5.75829C9.12357 5.72046 9.10649 5.68282 9.08993 5.6454C8.96695 5.36764 8.60476 5.28643 8.38996 5.50123L3.61628 10.2749C3.50794 10.3832 3.40794 10.5916 3.38294 10.7332L2.93295 13.9249C2.84962 14.4915 3.00795 15.0249 3.35794 15.3832C3.65794 15.6749 4.0746 15.8332 4.5246 15.8332C4.6246 15.8332 4.7246 15.8249 4.8246 15.8082L8.02457 15.3582C8.17457 15.3332 8.3829 15.2332 8.4829 15.1249L13.2506 10.3572C13.4669 10.1409 13.3853 9.76964 13.104 9.6496C13.0723 9.63608 13.0403 9.62231 13.0079 9.60825Z" fill="#1C1B17"/>
</svg>
