<svg width="16" height="16" viewBox="0 0 16 16" fill="none" xmlns="http://www.w3.org/2000/svg">
<path d="M9.68661 6.31328L6.31328 9.68661C5.87995 9.25328 5.61328 8.65995 5.61328 7.99995C5.61328 6.67995 6.67995 5.61328 7.99995 5.61328C8.65995 5.61328 9.25328 5.87995 9.68661 6.31328Z" stroke="#1B1A1F" stroke-linecap="round" stroke-linejoin="round"/>
<path d="M11.8799 3.84706C10.7132 2.96706 9.3799 2.48706 7.9999 2.48706C5.64656 2.48706 3.45323 3.87373 1.92656 6.27373C1.32656 7.21373 1.32656 8.79373 1.92656 9.73373C2.45323 10.5604 3.06656 11.2737 3.73323 11.8471" stroke="#1B1A1F" stroke-linecap="round" stroke-linejoin="round"/>
<path d="M5.61328 13.0197C6.37328 13.3397 7.17995 13.513 7.99995 13.513C10.3533 13.513 12.5466 12.1264 14.0733 9.72638C14.6733 8.78638 14.6733 7.20638 14.0733 6.26638C13.8533 5.91971 13.6133 5.59304 13.3666 5.28638" stroke="#1F1F1F" stroke-linecap="round" stroke-linejoin="round"/>
<path d="M10.3409 8.46606C10.1676 9.40606 9.40094 10.1727 8.46094 10.3461" stroke="#1F1F1F" stroke-linecap="round" stroke-linejoin="round"/>
<path d="M6.31398 9.68628L1.33398 14.6663" stroke="#1F1F1F" stroke-linecap="round" stroke-linejoin="round"/>
<path d="M14.6675 1.33325L9.6875 6.31325" stroke="#1F1F1F" stroke-linecap="round" stroke-linejoin="round"/>
</svg>
