<svg width="12" height="12" viewBox="0 0 12 12" fill="none" xmlns="http://www.w3.org/2000/svg">
<path d="M5.99996 8.16496C4.80496 8.16496 3.83496 7.19496 3.83496 5.99996C3.83496 4.80496 4.80496 3.83496 5.99996 3.83496C7.19496 3.83496 8.16496 4.80496 8.16496 5.99996C8.16496 7.19496 7.19496 8.16496 5.99996 8.16496ZM5.99996 4.58496C5.21996 4.58496 4.58496 5.21996 4.58496 5.99996C4.58496 6.77996 5.21996 7.41496 5.99996 7.41496C6.77996 7.41496 7.41496 6.77996 7.41496 5.99996C7.41496 5.21996 6.77996 4.58496 5.99996 4.58496Z" fill="#1C1B17"/>
<path d="M6.00004 10.5102C4.12004 10.5102 2.34504 9.41023 1.12504 7.50023C0.595039 6.67523 0.595039 5.33023 1.12504 4.50023C2.35004 2.59023 4.12504 1.49023 6.00004 1.49023C7.87504 1.49023 9.65004 2.59023 10.87 4.50023C11.4 5.32523 11.4 6.67023 10.87 7.50023C9.65004 9.41023 7.87504 10.5102 6.00004 10.5102ZM6.00004 2.24023C4.38504 2.24023 2.84004 3.21023 1.76004 4.90523C1.38504 5.49023 1.38504 6.51023 1.76004 7.09523C2.84004 8.79023 4.38504 9.76023 6.00004 9.76023C7.61504 9.76023 9.16004 8.79023 10.24 7.09523C10.615 6.51023 10.615 5.49023 10.24 4.90523C9.16004 3.21023 7.61504 2.24023 6.00004 2.24023Z" fill="#1C1B17"/>
</svg>
