<svg width="23" height="40" viewBox="0 0 23 40" fill="none" xmlns="http://www.w3.org/2000/svg">
<g clip-path="url(#clip0_160_11510)">
<path d="M10.7775 8.17642C11.0597 8.17776 11.3418 8.17697 11.6239 8.17562C14.5029 8.1639 14.5029 8.1639 15.5252 8.72456C15.5767 8.75178 15.6282 8.779 15.6812 8.80705C17.0369 9.54879 17.8072 10.7054 18.2502 12.16C18.306 12.3523 18.3611 12.5447 18.4156 12.7373C18.4463 12.8438 18.477 12.9502 18.5078 13.0567C18.5901 13.342 18.6717 13.6275 18.753 13.9131C18.8908 14.3962 19.0298 14.879 19.1685 15.3619C19.222 15.5482 19.2754 15.7346 19.3288 15.9209C19.5531 16.7031 19.7824 17.4836 20.0158 18.263C20.1148 18.594 20.2131 18.9252 20.3114 19.2564C20.3891 19.5177 20.4673 19.7788 20.5466 20.0396C20.6346 20.3292 20.7205 20.6194 20.8063 20.9096C20.8321 20.9932 20.858 21.0768 20.8846 21.163C21.0611 21.7688 21.2206 22.485 20.9814 23.093C20.7647 23.4807 20.4641 23.7293 20.0466 23.8906C19.5515 23.9505 19.1479 23.9163 18.7107 23.6757C18.3118 23.3224 18.1332 22.9241 17.9823 22.4239C17.9487 22.3184 17.9487 22.3184 17.9146 22.2108C17.8389 21.9705 17.7657 21.7295 17.6929 21.4882C17.666 21.3998 17.6391 21.3113 17.6114 21.2201C17.4132 20.567 17.2194 19.9127 17.0264 19.258C16.9452 18.9827 16.8635 18.7074 16.7819 18.4321C16.7656 18.3771 16.7492 18.322 16.7324 18.2653C16.6995 18.1542 16.6665 18.0432 16.6336 17.9321C16.5845 17.7666 16.5354 17.6011 16.4864 17.4356C16.2187 16.5323 15.9502 15.6293 15.6784 14.7272C15.6353 14.5837 15.5923 14.4402 15.5494 14.2966C15.491 14.1013 15.4322 13.906 15.3732 13.7108C15.3565 13.6544 15.3398 13.598 15.3225 13.5399C15.2477 13.2943 15.1751 13.1101 15.031 12.8945C14.8698 12.8379 14.8698 12.8379 14.7178 12.8164C14.7647 13.3044 14.873 13.7469 15.0166 14.215C15.0505 14.3274 15.0505 14.3274 15.085 14.4421C15.1595 14.6892 15.2347 14.9361 15.3099 15.183C15.3626 15.3571 15.4152 15.5312 15.4678 15.7053C15.6066 16.1645 15.746 16.6235 15.8855 17.0824C16.0249 17.5412 16.1636 18.0002 16.3023 18.4592C17.3171 21.8443 17.3171 21.8443 18.415 25.203C18.465 25.3491 18.5146 25.4954 18.5643 25.6417C18.6067 25.7655 18.6067 25.7655 18.6501 25.8918C18.7107 26.0976 18.7107 26.0976 18.7107 26.332C13.6726 26.332 8.63451 26.332 3.44373 26.332C3.57928 25.836 3.71037 25.3597 3.87525 24.8763C3.91475 24.7589 3.95418 24.6415 3.99353 24.5241C4.0146 24.4613 4.03566 24.3985 4.05736 24.3338C4.65781 22.5368 5.19648 20.7218 5.73378 18.9052C5.75373 18.8378 5.77369 18.7703 5.79425 18.7008C5.96933 18.1089 6.14434 17.5169 6.3181 16.9245C6.48679 16.3497 6.65614 15.7751 6.82999 15.2018C6.90514 14.9539 6.97975 14.7058 7.05433 14.4577C7.08948 14.3414 7.12492 14.2251 7.16065 14.1089C7.20959 13.9497 7.25757 13.7903 7.30536 13.6307C7.33272 13.5409 7.36007 13.4512 7.38826 13.3587C7.43495 13.1369 7.43752 13.0252 7.35835 12.8164C7.20425 12.8354 7.20425 12.8354 7.04518 12.8945C6.95342 13.1055 6.88648 13.2998 6.82376 13.5198C6.80324 13.5877 6.78271 13.6556 6.76157 13.7256C6.71609 13.8768 6.67125 14.0282 6.62693 14.1798C6.55475 14.4265 6.48097 14.6728 6.4068 14.919C6.244 15.4608 6.08338 16.0033 5.92303 16.5459C5.64041 17.5021 5.35723 18.4582 5.07233 19.4137C4.94584 19.8383 4.82044 20.2631 4.69584 20.6883C4.61673 20.9574 4.53674 21.2263 4.45655 21.4952C4.41912 21.6213 4.38206 21.7475 4.34539 21.8739C4.29458 22.0487 4.24248 22.2232 4.19007 22.3975C4.1611 22.4958 4.13213 22.5941 4.10228 22.6953C3.90655 23.1864 3.64255 23.5654 3.14952 23.7807C2.7177 23.9068 2.32547 23.87 1.89745 23.749C1.54566 23.5397 1.27915 23.2621 1.09495 22.8945C1.01176 22.0848 1.20346 21.3812 1.44207 20.6203C1.47895 20.499 1.5157 20.3776 1.55233 20.2563C1.65039 19.9325 1.75012 19.6094 1.85022 19.2863C1.95417 18.9498 2.05666 18.613 2.15924 18.2761C2.28391 17.8669 2.40869 17.4578 2.53415 17.0489C2.77677 16.2576 3.01482 15.4651 3.24616 14.6705C3.29176 14.5139 3.33751 14.3574 3.38331 14.2009C3.55222 13.624 3.55222 13.624 3.71916 13.0466C4.23806 11.2419 4.86332 9.747 6.57756 8.77583C7.90374 8.10843 9.33126 8.16951 10.7775 8.17642Z" fill="#566B4D"/>
<path d="M13.289 0.643518C14.1384 1.21918 14.6891 2.04012 14.9233 3.04088C14.974 3.32736 14.9793 3.61004 14.9772 3.90035C14.9767 3.96219 14.9763 4.02404 14.9758 4.08775C14.9661 4.55679 14.9122 4.96297 14.7178 5.39449C14.6872 5.46388 14.6566 5.53327 14.6251 5.60476C14.094 6.68419 13.2805 7.21257 12.2011 7.65005C11.3097 7.93106 10.2146 7.77975 9.38383 7.38851C8.4001 6.8504 7.75371 6.08925 7.36321 5.03317C7.07394 3.91282 7.25942 2.72547 7.84275 1.73727C9.07627 -0.0568894 11.4601 -0.427057 13.289 0.643518Z" fill="#566B4D"/>
<path d="M11.4294 26.957C12.5145 26.957 13.5997 26.957 14.7177 26.957C14.7265 28.4918 14.7337 30.0266 14.738 31.5614C14.74 32.2741 14.7427 32.9868 14.7472 33.6995C14.7511 34.3209 14.7536 34.9423 14.7545 35.5637C14.755 35.8925 14.7562 36.2213 14.7591 36.5502C14.7617 36.8602 14.7625 37.1701 14.762 37.4801C14.7621 37.5934 14.7628 37.7067 14.7643 37.82C14.7729 38.495 14.7354 39.0538 14.3262 39.6132C13.8575 40.0561 13.407 40.114 12.7842 40.1091C12.3061 40.0589 12.0315 39.8338 11.7132 39.4911C11.4787 39.1401 11.4099 38.9222 11.4106 38.4939C11.4103 38.3922 11.4101 38.2906 11.4099 38.1858C11.4105 38.0733 11.411 37.9608 11.4116 37.8483C11.4117 37.7297 11.4116 37.6112 11.4115 37.4926C11.4115 37.1707 11.4124 36.8489 11.4135 36.5271C11.4145 36.1907 11.4146 35.8543 11.4148 35.518C11.4153 34.8811 11.4165 34.2441 11.4181 33.6072C11.4199 32.8821 11.4207 32.1569 11.4215 31.4318C11.4232 29.9402 11.426 28.4486 11.4294 26.957Z" fill="#566B4D"/>
<path d="M7.59302 26.957C8.65231 26.957 9.71161 26.957 10.803 26.957C10.8118 28.5149 10.8191 30.0727 10.8233 31.6306C10.8253 32.354 10.8281 33.0774 10.8325 33.8008C10.8364 34.4314 10.839 35.062 10.8398 35.6926C10.8403 36.0264 10.8415 36.3602 10.8444 36.694C10.8471 37.0085 10.8479 37.3229 10.8473 37.6374C10.8474 37.7525 10.8482 37.8677 10.8497 37.9828C10.8576 38.6194 10.8571 39.1253 10.4115 39.6132C9.93925 40.05 9.57943 40.1189 8.94448 40.1055C8.50024 40.0646 8.22199 39.9468 7.92331 39.6141C7.41508 38.9216 7.50501 38.1412 7.51302 37.3162C7.51382 37.2029 7.51458 37.0897 7.5153 36.9764C7.51737 36.6706 7.51993 36.3648 7.5226 36.0589C7.5253 35.7387 7.52753 35.4185 7.52981 35.0983C7.53419 34.4927 7.539 33.887 7.54396 33.2814C7.54958 32.5916 7.55474 31.9018 7.55986 31.212C7.57039 29.7936 7.58157 28.3753 7.59302 26.957Z" fill="#566B4D"/>
</g>
<defs>
<clipPath id="clip0_160_11510">
<rect width="23" height="40" fill="white"/>
</clipPath>
</defs>
</svg>
