<svg width="20" height="20" viewBox="0 0 20 20" fill="none" xmlns="http://www.w3.org/2000/svg">
<path d="M7.50033 18.3337H12.5003C16.667 18.3337 18.3337 16.667 18.3337 12.5003V7.50033C18.3337 3.33366 16.667 1.66699 12.5003 1.66699H7.50033C3.33366 1.66699 1.66699 3.33366 1.66699 7.50033V12.5003C1.66699 16.667 3.33366 18.3337 7.50033 18.3337Z" stroke="#1C1B17" stroke-width="1.5" stroke-linecap="round" stroke-linejoin="round"/>
<path d="M9.99967 12.9163C11.6105 12.9163 12.9163 11.6105 12.9163 9.99967C12.9163 8.38884 11.6105 7.08301 9.99967 7.08301C8.38884 7.08301 7.08301 8.38884 7.08301 9.99967C7.08301 11.6105 8.38884 12.9163 9.99967 12.9163Z" stroke="#1C1B17" stroke-width="1.5" stroke-linecap="round" stroke-linejoin="round"/>
<path d="M14.6971 5.83366H14.7067" stroke="#1C1B17" stroke-width="2" stroke-linecap="round" stroke-linejoin="round"/>
</svg>
