<svg width="71" height="32" viewBox="0 0 71 32" fill="none" xmlns="http://www.w3.org/2000/svg">
<path d="M11.5833 8.81683C12.1031 8.52897 14.5684 7.06832 14.928 7.16857C15.2532 7.89484 14.9283 27.4872 15.0516 30.4404C15.4896 30.5472 16.032 30.6506 16.4216 30.8596L16.4792 30.9597C16.1396 31.1088 15.1926 31.0333 14.7947 31.0165C14.5934 31.0324 13.743 31.0481 13.5548 31.0271C12.8695 30.9508 9.75211 31.2023 9.39177 30.9494C9.66151 30.6611 10.8356 30.5064 11.2788 30.4278C11.5298 29.7453 11.3401 22.5591 11.3785 21.2154C11.3655 21.2137 11.2267 21.1956 11.2267 21.1956C10.5805 21.6473 9.99209 22.1973 9.2843 22.5499C7.07372 23.5505 4.20994 23.4379 2.34239 21.7292C0.64293 20.1486 0.165546 18.3405 0.022058 16.1236C-0.265948 11.6726 2.27551 7.33865 7.11041 7.14227C8.94142 7.1735 10.207 7.48103 11.5833 8.81683Z" fill="#1A1815"/>
<path d="M11.5832 8.81683C12.103 8.52897 14.5684 7.06832 14.9279 7.16857C15.2531 7.89484 14.9283 27.4872 15.0515 30.4404C15.4895 30.5472 16.032 30.6506 16.4216 30.8596L16.4791 30.9597C16.1395 31.1088 15.1926 31.0333 14.7947 31.0165C14.5934 31.0324 13.743 31.0481 13.5547 31.0271C12.8694 30.9508 9.75205 31.2023 9.39171 30.9494C9.66145 30.6611 10.8355 30.5064 11.2787 30.4278C11.5297 29.7453 11.3401 22.5591 11.3784 21.2154C11.4054 21.1683 11.4137 21.0766 11.4237 21.0176L11.164 20.7888C11.3848 20.3555 11.3876 19.7304 11.3839 19.2489C11.3583 15.9163 11.44 12.5592 11.3424 9.23006C10.5071 7.93602 8.81799 7.48103 7.36359 7.72838C7.20854 7.56736 7.25892 7.53148 7.24618 7.25261L7.11035 7.14227C8.94137 7.1735 10.207 7.48103 11.5832 8.81683Z" fill="white"/>
<path d="M11.2786 30.4279C11.3231 30.7125 11.2741 30.6569 11.4424 30.8541C12.1215 31.164 14.4808 30.697 14.7946 31.0165C14.5932 31.0324 13.7429 31.0481 13.5546 31.0271C12.8693 30.9508 9.75194 31.2023 9.3916 30.9494C9.66134 30.6611 10.8354 30.5064 11.2786 30.4279Z" fill="white"/>
<path d="M9.2843 22.5499C7.07372 23.5505 4.20994 23.4379 2.34239 21.7292C0.64293 20.1486 0.165546 18.3405 0.022058 16.1236C-0.265948 11.6726 2.27551 7.33865 7.11041 7.14227L7.24623 7.25261C7.25898 7.53148 7.20859 7.56736 7.36365 7.72838C5.59797 8.2859 4.47916 9.67849 4.07463 11.4468C3.27123 14.9578 3.19138 23.4003 8.88861 22.206L8.83763 22.3889C9.0346 22.5816 9.08579 22.3867 9.2843 22.5499Z" fill="white"/>
<path d="M11.1643 20.7889L11.424 21.0176C11.414 21.0766 11.4057 21.1683 11.3788 21.2155C11.3658 21.2138 11.2269 21.1957 11.2269 21.1957C10.5807 21.6473 9.99235 22.1974 9.28456 22.5499C9.08605 22.3868 9.03485 22.5817 8.83789 22.389L8.88886 22.2061C9.80864 21.9537 10.4509 21.393 11.1643 20.7889Z" fill="white"/>
<path d="M48.2743 7.12302C52.0015 6.83479 55.1953 9.17486 55.3323 13.0679C55.3434 13.3716 55.4251 13.7742 55.2285 14.031C54.8057 14.2341 46.1051 14.1389 44.8831 14.1369C44.995 16.7837 45.3066 19.0069 47.8294 20.4925C50.2889 21.9408 53.3789 21.1343 54.7593 18.6305C54.9979 18.0237 55.1246 17.5704 55.487 17.0218C55.2071 18.5435 55.0333 19.5457 54.0499 20.7649C52.9038 22.2048 51.642 22.7969 49.8587 23.0939C45.5187 23.8169 41.8903 20.8822 41.5213 16.5164C41.3047 13.9614 41.7253 11.6506 43.3951 9.64635C44.6201 8.18805 46.3769 7.27955 48.2743 7.12302Z" fill="white"/>
<path d="M48.2244 7.4839C48.368 7.47955 48.5109 7.47867 48.6545 7.48139C51.4963 7.54555 51.7836 11.7029 51.6944 13.7409C50.664 13.7968 49.4861 13.778 48.4424 13.7823L44.8648 13.7909C44.8456 11.4042 45.3362 7.97005 48.2244 7.4839Z" fill="#1A1815"/>
<path d="M28.3172 9.01782C27.8943 9.02622 27.1936 9.11174 26.8926 8.8266L26.9146 8.70057C27.2268 8.40874 31.1245 7.34223 31.8947 7.10748C31.9876 8.04044 31.9602 9.47892 31.963 10.4511L31.9693 16.1001C31.9679 17.0262 31.8618 21.6565 32.0988 22.1494C32.549 22.5485 33.4523 22.6035 34.1027 22.7487C32.9809 22.846 29.5736 22.8371 28.4576 22.7492C28.355 22.1785 28.3381 21.0036 28.3148 20.372C27.7799 20.6847 27.1103 21.2237 26.5831 21.6038C25.4199 22.4345 23.8374 23.0496 22.4026 23.1063C20.5645 23.1789 18.7209 22.029 18.4217 20.1187C18.2091 18.7615 18.2984 17.3151 18.2975 15.9423C18.3043 13.6353 18.2904 11.3284 18.2559 9.02172C17.8331 9.01664 17.0959 9.03108 16.7247 8.89422L16.6992 8.76694C16.9151 8.47333 20.9461 7.36955 21.5536 7.17296C21.6502 7.16471 21.7216 7.19204 21.8154 7.21708C22.4026 8.10342 21.0748 19.2827 22.7007 20.7226C24.9183 22.6865 26.6377 20.8713 28.3331 20.0004C28.4225 18.5289 28.3632 16.5702 28.3645 15.0481C28.3661 13.1029 28.405 10.9414 28.3172 9.01782Z" fill="white"/>
<path d="M61.0404 3.59362C61.1775 4.57653 61.1414 6.50749 61.1539 7.57179L62.2912 7.55227C63.0285 7.53371 64.8574 7.37056 65.3988 7.75027L65.4106 7.83711C65.1403 7.92572 62.9909 7.94583 62.6226 7.91526C62.2971 7.96454 61.5052 7.96948 61.1414 7.98067L61.1259 16.0727C61.1259 16.7535 61.1148 17.4415 61.1266 18.1219C61.1472 19.338 60.9476 20.6696 62.1011 21.4622C62.5077 21.744 63.0101 21.8506 63.4955 21.7584C64.5503 21.5556 65.0453 20.5053 65.5852 19.6912C64.8324 23.1227 61.5391 24.064 58.662 22.2534C57.3464 21.4259 57.5755 18.269 57.5763 16.8521L57.5792 11.4061C57.58 10.3767 57.6138 9.16798 57.5431 8.16357C57.0982 8.07304 56.0493 7.99386 55.748 7.70858C55.9757 7.45902 57.0209 7.5304 57.3892 7.53489C58.4852 6.46161 59.9481 4.3926 61.0404 3.59362Z" fill="white"/>
<path d="M62.2914 7.55226C63.0287 7.5337 64.8576 7.37054 65.399 7.75026L65.4108 7.8371C65.1405 7.92571 62.9911 7.94582 62.6228 7.91525C62.1573 7.85552 61.7514 7.8125 61.2822 7.78016C61.6498 7.64772 62.0056 7.81758 62.2914 7.55226Z" fill="white"/>
<path d="M35.7323 8.86778C35.2966 8.87315 34.6124 8.92457 34.2508 8.6787L34.2547 8.54906L34.1982 8.62441C34.3547 8.47518 35.1019 8.2956 35.3407 8.26591C36.2921 8.14784 38.3824 7.1393 39.2165 7.17708C39.606 7.68504 39.344 20.4162 39.4267 22.19C40.1604 22.4996 40.7511 22.5115 41.3553 22.7699C39.3212 22.7945 37.2871 22.8011 35.253 22.7899C35.2976 22.756 35.3627 22.6819 35.404 22.6385L35.3761 22.388C35.5245 22.2955 35.7481 22.2095 35.7476 22.0101C35.7357 17.6992 35.957 13.1574 35.7323 8.86778Z" fill="white"/>
<path d="M67.9775 18.4752C69.2348 18.3021 70.3957 19.1793 70.5725 20.4363C70.7492 21.6935 69.8757 22.8566 68.619 23.0373C67.3573 23.2187 66.1876 22.3406 66.01 21.078C65.8325 19.8155 66.7142 18.6489 67.9775 18.4752Z" fill="#DD8157"/>
<path d="M36.8896 0.0747997C38.0985 -0.242597 39.336 0.479262 39.6548 1.68778C39.9737 2.89631 39.2533 4.13466 38.0452 4.45493C36.835 4.77579 35.5941 4.05393 35.2747 2.84334C34.9553 1.63276 35.6787 0.392712 36.8896 0.0747997Z" fill="white"/>
<path d="M35.2535 22.7899C34.9501 22.7993 34.6912 22.8248 34.3993 22.7351L34.3564 22.6515C34.6383 22.4667 35.0308 22.4453 35.3766 22.388L35.4045 22.6386C35.3632 22.6819 35.2981 22.756 35.2535 22.7899Z" fill="white"/>
</svg>
