<svg width="20" height="20" viewBox="0 0 20 20" fill="none" xmlns="http://www.w3.org/2000/svg">
<path d="M13.9999 1.66699H11.8333C9.16665 1.66699 7.5 3.33364 7.5 6.00029V9.37526H12.7083C13.05 9.37526 13.3333 9.65859 13.3333 10.0003C13.3333 10.3419 13.05 10.6252 12.7083 10.6252H7.5V14.0002C7.5 16.6669 9.16665 18.3335 11.8333 18.3335H13.9916C16.6583 18.3335 18.3249 16.6669 18.3249 14.0002V6.00029C18.3332 3.33364 16.6666 1.66699 13.9999 1.66699Z" fill="white"/>
<path d="M3.80018 9.37452L5.52516 7.64954C5.65016 7.52454 5.70849 7.3662 5.70849 7.20787C5.70849 7.04954 5.65016 6.88288 5.52516 6.76621C5.2835 6.52454 4.8835 6.52454 4.64184 6.76621L1.85019 9.55785C1.60853 9.79952 1.60853 10.1995 1.85019 10.4412L4.64184 13.2328C4.8835 13.4745 5.2835 13.4745 5.52516 13.2328C5.76683 12.9912 5.76683 12.5912 5.52516 12.3495L3.80018 10.6245H7.50014V9.37452H3.80018Z" fill="white"/>
</svg>
