<svg width="71" height="32" viewBox="0 0 71 32" fill="none" xmlns="http://www.w3.org/2000/svg">
<path d="M11.5833 8.81683C12.1031 8.52897 14.5684 7.06832 14.928 7.16857C15.2532 7.89484 14.9283 27.4872 15.0516 30.4404C15.4896 30.5472 16.032 30.6506 16.4216 30.8596L16.4792 30.9597C16.1396 31.1088 15.1926 31.0333 14.7947 31.0165C14.5934 31.0324 13.743 31.0481 13.5548 31.0271C12.8695 30.9508 9.75211 31.2023 9.39177 30.9494C9.66151 30.6611 10.8356 30.5064 11.2788 30.4278C11.5298 29.7453 11.3401 22.5591 11.3785 21.2154C11.3655 21.2137 11.2267 21.1956 11.2267 21.1956C10.5805 21.6473 9.99209 22.1973 9.2843 22.5499C7.07372 23.5505 4.20994 23.4379 2.34239 21.7292C0.64293 20.1486 0.165546 18.3405 0.022058 16.1236C-0.265948 11.6726 2.27551 7.33865 7.11041 7.14227C8.94142 7.1735 10.207 7.48103 11.5833 8.81683Z" fill="#F3EEE3"/>
<path d="M11.5832 8.81683C12.103 8.52897 14.5684 7.06832 14.9279 7.16857C15.2531 7.89484 14.9283 27.4872 15.0515 30.4404C15.4895 30.5472 16.032 30.6506 16.4216 30.8596L16.4791 30.9597C16.1395 31.1088 15.1926 31.0333 14.7947 31.0165C14.5934 31.0324 13.743 31.0481 13.5547 31.0271C12.8694 30.9508 9.75205 31.2023 9.39171 30.9494C9.66145 30.6611 10.8355 30.5064 11.2787 30.4278C11.5297 29.7453 11.3401 22.5591 11.3784 21.2154C11.4054 21.1683 11.4137 21.0766 11.4237 21.0176L11.164 20.7888C11.3848 20.3555 11.3876 19.7304 11.3839 19.2489C11.3583 15.9163 11.44 12.5592 11.3424 9.23006C10.5071 7.93602 8.81799 7.48103 7.36359 7.72838C7.20854 7.56736 7.25892 7.53148 7.24618 7.25261L7.11035 7.14227C8.94137 7.1735 10.207 7.48103 11.5832 8.81683Z" fill="#1C1B17"/>
<path d="M11.2791 30.4279C11.3236 30.7125 11.2746 30.6569 11.4429 30.8541C12.122 31.164 14.4813 30.697 14.795 31.0165C14.5937 31.0324 13.7433 31.0481 13.5551 31.0271C12.8698 30.9508 9.75243 31.2023 9.39209 30.9494C9.66183 30.6611 10.8359 30.5064 11.2791 30.4279Z" fill="#1C1B17"/>
<path d="M9.2843 22.5499C7.07372 23.5505 4.20994 23.4379 2.34239 21.7292C0.64293 20.1486 0.165546 18.3405 0.022058 16.1236C-0.265948 11.6726 2.27551 7.33865 7.11041 7.14227L7.24623 7.25261C7.25898 7.53148 7.20859 7.56736 7.36365 7.72838C5.59797 8.2859 4.47916 9.67849 4.07463 11.4468C3.27123 14.9578 3.19138 23.4003 8.88861 22.206L8.83763 22.3889C9.0346 22.5816 9.08579 22.3867 9.2843 22.5499Z" fill="#1C1B17"/>
<path d="M11.1641 20.7889L11.4237 21.0176C11.4138 21.0766 11.4055 21.1683 11.3785 21.2155C11.3655 21.2138 11.2267 21.1957 11.2267 21.1957C10.5805 21.6473 9.9921 22.1974 9.28432 22.5499C9.08581 22.3868 9.03461 22.5817 8.83765 22.389L8.88862 22.2061C9.8084 21.9537 10.4507 21.393 11.1641 20.7889Z" fill="#1C1B17"/>
<path d="M48.2743 7.12302C52.0015 6.83479 55.1953 9.17486 55.3323 13.0679C55.3434 13.3716 55.4251 13.7742 55.2285 14.031C54.8057 14.2341 46.1051 14.1389 44.8831 14.1369C44.995 16.7837 45.3066 19.0069 47.8294 20.4925C50.2889 21.9408 53.3789 21.1343 54.7593 18.6305C54.9979 18.0237 55.1246 17.5704 55.487 17.0218C55.2071 18.5435 55.0333 19.5457 54.0499 20.7649C52.9038 22.2048 51.642 22.7969 49.8587 23.0939C45.5187 23.8169 41.8903 20.8822 41.5213 16.5164C41.3047 13.9614 41.7253 11.6506 43.3951 9.64635C44.6201 8.18805 46.3769 7.27955 48.2743 7.12302Z" fill="#1C1B17"/>
<path d="M48.2241 7.4839C48.3678 7.47955 48.5107 7.47867 48.6543 7.48139C51.4961 7.54555 51.7833 11.7029 51.6942 13.7409C50.6637 13.7968 49.4859 13.778 48.4422 13.7823L44.8645 13.7909C44.8454 11.4042 45.336 7.97005 48.2241 7.4839Z" fill="#F3EEE3"/>
<path d="M28.3175 9.01782C27.8945 9.02622 27.1939 9.11174 26.8928 8.8266L26.9149 8.70057C27.227 8.40874 31.1248 7.34223 31.8949 7.10748C31.9878 8.04044 31.9605 9.47892 31.9633 10.4511L31.9695 16.1001C31.9681 17.0262 31.8621 21.6565 32.099 22.1494C32.5492 22.5485 33.4525 22.6035 34.1029 22.7487C32.9812 22.846 29.5739 22.8371 28.4579 22.7492C28.3553 22.1785 28.3384 21.0036 28.315 20.372C27.7801 20.6847 27.1106 21.2237 26.5834 21.6038C25.4202 22.4345 23.8377 23.0496 22.4029 23.1063C20.5648 23.1789 18.7212 22.029 18.4219 20.1187C18.2093 18.7615 18.2986 17.3151 18.2978 15.9423C18.3046 13.6353 18.2906 11.3284 18.2561 9.02172C17.8333 9.01664 17.0962 9.03108 16.7249 8.89422L16.6995 8.76694C16.9154 8.47333 20.9463 7.36955 21.5538 7.17296C21.6504 7.16471 21.7218 7.19204 21.8157 7.21708C22.4028 8.10342 21.075 19.2827 22.7009 20.7226C24.9185 22.6865 26.638 20.8713 28.3334 20.0004C28.4227 18.5289 28.3634 16.5702 28.3648 15.0481C28.3664 13.1029 28.4053 10.9414 28.3175 9.01782Z" fill="#1C1B17"/>
<path d="M61.0409 3.59362C61.1779 4.57653 61.1418 6.50749 61.1544 7.57179L62.2917 7.55227C63.029 7.53371 64.8579 7.37056 65.3993 7.75027L65.4111 7.83711C65.1408 7.92572 62.9914 7.94583 62.6231 7.91526C62.2976 7.96454 61.5057 7.96948 61.1418 7.98067L61.1264 16.0727C61.1264 16.7535 61.1153 17.4415 61.1271 18.1219C61.1477 19.338 60.9481 20.6696 62.1016 21.4622C62.5082 21.744 63.0106 21.8506 63.496 21.7584C64.5508 21.5556 65.0458 20.5053 65.5857 19.6912C64.8329 23.1227 61.5396 24.064 58.6625 22.2534C57.3469 21.4259 57.576 18.269 57.5768 16.8521L57.5797 11.4061C57.5804 10.3767 57.6143 9.16798 57.5436 8.16357C57.0987 8.07304 56.0498 7.99386 55.7485 7.70858C55.9761 7.45902 57.0214 7.5304 57.3897 7.53489C58.4857 6.46161 59.9486 4.3926 61.0409 3.59362Z" fill="#1C1B17"/>
<path d="M62.2916 7.55226C63.0289 7.5337 64.8579 7.37054 65.3993 7.75026L65.4111 7.8371C65.1407 7.92571 62.9914 7.94582 62.6231 7.91525C62.1575 7.85552 61.7517 7.8125 61.2825 7.78016C61.65 7.64772 62.0058 7.81758 62.2916 7.55226Z" fill="#1C1B17"/>
<path d="M35.7325 8.86778C35.2968 8.87315 34.6126 8.92457 34.251 8.6787L34.2549 8.54906L34.1985 8.62441C34.3549 8.47518 35.1021 8.2956 35.3409 8.26591C36.2924 8.14784 38.3827 7.1393 39.2167 7.17708C39.6062 7.68504 39.3442 20.4162 39.4269 22.19C40.1607 22.4996 40.7513 22.5115 41.3556 22.7699C39.3215 22.7945 37.2873 22.8011 35.2533 22.7899C35.2978 22.756 35.363 22.6819 35.4043 22.6385L35.3764 22.388C35.5248 22.2955 35.7483 22.2095 35.7478 22.0101C35.7359 17.6992 35.9572 13.1574 35.7325 8.86778Z" fill="#1C1B17"/>
<path d="M67.9772 18.4752C69.2346 18.3021 70.3954 19.1793 70.5722 20.4363C70.749 21.6935 69.8754 22.8566 68.6188 23.0373C67.357 23.2187 66.1873 22.3406 66.0098 21.078C65.8323 19.8155 66.714 18.6489 67.9772 18.4752Z" fill="#BB5836"/>
<path d="M36.8899 0.0747997C38.0988 -0.242597 39.3363 0.479262 39.6551 1.68778C39.974 2.89631 39.2536 4.13466 38.0454 4.45493C36.8353 4.77579 35.5943 4.05393 35.275 2.84334C34.9556 1.63276 35.6789 0.392712 36.8899 0.0747997Z" fill="#1C1B17"/>
<path d="M35.2531 22.7899C34.9496 22.7993 34.6907 22.8248 34.3988 22.7351L34.356 22.6515C34.6378 22.4667 35.0303 22.4453 35.3761 22.388L35.4041 22.6386C35.3627 22.6819 35.2976 22.756 35.2531 22.7899Z" fill="#1C1B17"/>
</svg>
