<svg width="35" height="35" viewBox="0 0 35 35" fill="none" xmlns="http://www.w3.org/2000/svg">
<g clip-path="url(#clip0_160_11506)">
<path d="M13.7531 8.25163C13.8424 8.25117 13.9317 8.25071 14.0238 8.25023C14.2676 8.24903 14.5113 8.24871 14.7551 8.24862C14.9079 8.24852 15.0607 8.24823 15.2134 8.24787C15.7477 8.2466 16.2819 8.24604 16.8161 8.24615C17.312 8.24623 17.8079 8.24479 18.3037 8.24263C18.7311 8.24084 19.1586 8.24011 19.586 8.2402C19.8405 8.24023 20.095 8.23986 20.3495 8.2384C20.634 8.23681 20.9184 8.23745 21.2029 8.23827C21.2858 8.23751 21.3687 8.23674 21.454 8.23595C22.3599 8.24255 23.1129 8.48089 23.7892 9.0918C24.3662 9.68633 24.6854 10.3561 24.6874 11.1856C24.6876 11.231 24.6878 11.2765 24.688 11.3233C24.6886 11.4755 24.6887 11.6276 24.6888 11.7798C24.6892 11.889 24.6895 11.9981 24.6899 12.1073C24.6908 12.4037 24.6912 12.7002 24.6915 12.9967C24.6917 13.1819 24.692 13.3671 24.6923 13.5524C24.6932 14.132 24.6939 14.7116 24.6942 15.2912C24.6945 15.9602 24.6957 16.6292 24.6976 17.2982C24.6991 17.8154 24.6998 18.3326 24.6999 18.8498C24.7 19.1587 24.7004 19.4676 24.7016 19.7764C24.7027 20.067 24.7029 20.3575 24.7023 20.648C24.7022 20.7546 24.7025 20.8611 24.7032 20.9676C24.7041 21.1133 24.7037 21.2589 24.7029 21.4045C24.703 21.4859 24.7031 21.5674 24.7032 21.6513C24.6618 22.0156 24.5166 22.2813 24.2335 22.5116C24.1933 22.5452 24.1531 22.5787 24.1117 22.6133C23.8122 22.8223 23.4548 22.8009 23.1056 22.7637C22.7435 22.6502 22.4873 22.4748 22.2852 22.1484C22.1023 21.7436 22.1275 21.3302 22.1267 20.8948C22.1257 20.7677 22.1257 20.7677 22.1246 20.638C22.1229 20.4065 22.1217 20.1751 22.1209 19.9436C22.1198 19.7014 22.118 19.4592 22.1162 19.2169C22.113 18.7587 22.1105 18.3004 22.1082 17.8421C22.1056 17.3202 22.1022 16.7983 22.0988 16.2764C22.0917 15.2031 22.0856 14.1299 22.0802 13.0566C21.9674 13.0341 21.8546 13.0115 21.7384 12.9883C21.6706 13.1916 21.6615 13.3237 21.6615 13.5359C21.6612 13.6427 21.6612 13.6427 21.661 13.7516C21.6612 13.8301 21.6613 13.9085 21.6615 13.9894C21.6614 14.0725 21.6613 14.1557 21.6612 14.2414C21.661 14.4243 21.661 14.6072 21.6612 14.7901C21.6614 15.0877 21.6613 15.3853 21.661 15.683C21.6607 16.0591 21.6606 16.4352 21.6606 16.8113C21.6606 17.5507 21.6597 18.2901 21.6585 19.0295C21.6584 19.1459 21.6582 19.2623 21.658 19.3786C21.6577 19.5551 21.6575 19.7315 21.6572 19.9079C21.6562 20.5732 21.6553 21.2386 21.6544 21.904C21.6543 21.9648 21.6543 22.0256 21.6542 22.0883C21.653 23.0734 21.6528 24.0584 21.6529 25.0435C21.653 26.055 21.6518 27.0665 21.6494 28.0779C21.648 28.7017 21.6476 29.3255 21.6486 29.9492C21.6492 30.377 21.6485 30.8048 21.6469 31.2326C21.646 31.4793 21.6456 31.7259 21.6468 31.9726C21.648 32.2404 21.6466 32.5082 21.6449 32.776C21.6457 32.8534 21.6464 32.9308 21.6472 33.0106C21.6404 33.5772 21.5159 34.0384 21.1249 34.463C20.6028 34.9556 20.1678 35.0394 19.4598 35.024C18.9424 34.9744 18.5469 34.7562 18.1837 34.3848C17.8763 33.9199 17.7655 33.5692 17.7627 33.0117C17.7622 32.9384 17.7622 32.9384 17.7617 32.8638C17.7606 32.7002 17.7601 32.5367 17.7595 32.3732C17.7588 32.2559 17.7582 32.1387 17.7574 32.0215C17.7556 31.7032 17.7542 31.3848 17.7528 31.0665C17.7513 30.7339 17.7494 30.4012 17.7476 30.0686C17.7442 29.4387 17.7411 28.8087 17.7382 28.1788C17.7348 27.4616 17.731 26.7445 17.7272 26.0273C17.7195 24.5521 17.7122 23.0768 17.7052 21.6016C17.592 21.5754 17.4779 21.5528 17.3634 21.5332C17.2347 21.6618 17.2859 21.8835 17.2856 22.0546C17.2853 22.1265 17.2853 22.1265 17.285 22.1998C17.2844 22.3616 17.2843 22.5234 17.2842 22.6852C17.2839 22.8007 17.2836 22.9162 17.2832 23.0317C17.2824 23.2812 17.2818 23.5307 17.2814 23.7801C17.2807 24.1749 17.2793 24.5696 17.2778 24.9643C17.2735 26.087 17.2698 27.2097 17.2676 28.3324C17.2663 28.9519 17.2643 29.5715 17.2616 30.191C17.2601 30.5189 17.2591 30.8467 17.2589 31.1746C17.2588 31.4834 17.2577 31.7923 17.2559 32.1011C17.2554 32.2141 17.2552 32.3272 17.2555 32.4403C17.2569 33.262 17.2186 33.8989 16.6242 34.525C16.3277 34.7892 15.9841 34.9612 15.586 35C15.5211 35.0065 15.5211 35.0065 15.4549 35.0131C14.9447 35.0411 14.4722 34.9142 14.0592 34.6083C13.6305 34.2091 13.3904 33.7624 13.364 33.1712C13.3625 33.0203 13.3624 32.8694 13.3635 32.7185C13.363 32.6349 13.3626 32.5513 13.3621 32.4653C13.3611 32.2348 13.3613 32.0043 13.362 31.7738C13.3625 31.5247 13.3614 31.2756 13.3605 31.0265C13.3591 30.5953 13.3588 30.1642 13.359 29.733C13.3595 29.1094 13.3583 28.4858 13.3568 27.8623C13.3543 26.8501 13.353 25.838 13.3524 24.8258C13.3519 23.8434 13.351 22.861 13.3495 21.8785C13.3494 21.8179 13.3493 21.7574 13.3492 21.695C13.3482 21.034 13.347 20.373 13.3458 19.712C13.3457 19.625 13.3457 19.625 13.3455 19.5361C13.3449 19.1881 13.3449 19.1881 13.3442 18.8401C13.3429 18.1605 13.342 17.4808 13.3416 16.8012C13.3414 16.3753 13.341 15.9494 13.3404 15.5235C13.34 15.2302 13.3399 14.937 13.34 14.6437C13.34 14.4249 13.3395 14.2061 13.3391 13.9872C13.3393 13.909 13.3394 13.8308 13.3395 13.7501C13.3393 13.6792 13.3391 13.6082 13.3389 13.535C13.3388 13.4735 13.3388 13.4121 13.3388 13.3487C13.3364 13.182 13.3364 13.182 13.2618 12.9883C13.0926 13.0221 13.0926 13.0221 12.92 13.0566C12.9199 13.1008 12.9198 13.145 12.9197 13.1905C12.9172 14.2672 12.9131 15.3439 12.9074 16.4206C12.9047 16.9413 12.9025 17.462 12.9015 17.9827C12.9006 18.4367 12.8987 18.8907 12.8958 19.3447C12.8942 19.585 12.8932 19.8252 12.8932 20.0654C12.8933 20.3341 12.8912 20.6028 12.889 20.8715C12.8895 20.9899 12.8895 20.9899 12.89 21.1108C12.8841 21.5701 12.837 21.9631 12.5782 22.3535C12.218 22.6958 11.8694 22.789 11.3865 22.7826C11.0205 22.7431 10.7755 22.5545 10.536 22.2809C10.3238 21.9875 10.3136 21.7868 10.3123 21.4328C10.312 21.3877 10.3118 21.3426 10.3115 21.2962C10.3108 21.1448 10.3105 20.9933 10.3103 20.8419C10.3098 20.7334 10.3094 20.6249 10.3089 20.5165C10.3075 20.1598 10.3067 19.8031 10.3061 19.4464C10.3058 19.3234 10.3055 19.2005 10.3052 19.0775C10.3039 18.4995 10.3029 17.9215 10.3024 17.3435C10.3017 16.6774 10.2999 16.0113 10.2971 15.3453C10.2951 14.8298 10.2941 14.3144 10.2938 13.799C10.2937 13.4915 10.2931 13.184 10.2914 12.8764C10.2898 12.5866 10.2895 12.2969 10.2902 12.007C10.2902 11.9012 10.2898 11.7954 10.2888 11.6896C10.2805 10.6942 10.4688 9.91628 11.1427 9.16016C11.9197 8.43061 12.7121 8.25085 13.7531 8.25163Z" fill="#BB5836"/>
<path d="M19.5249 0.563692C20.327 1.155 20.8247 1.95796 20.9864 2.93945C21.0526 4.03048 20.8664 4.94733 20.1388 5.79692C19.4006 6.56355 18.6029 6.92665 17.531 6.97505C16.5235 6.9648 15.7168 6.62033 14.9708 5.94726C14.2453 5.12616 13.9793 4.27485 13.9966 3.19339C14.0658 2.16587 14.565 1.38315 15.3083 0.698275C16.5082 -0.279165 18.2585 -0.247393 19.5249 0.563692Z" fill="#BB5836"/>
</g>
<defs>
<clipPath id="clip0_160_11506">
<rect width="35" height="35" fill="white"/>
</clipPath>
</defs>
</svg>
