<svg width="16" height="16" viewBox="0 0 16 16" fill="none" xmlns="http://www.w3.org/2000/svg">
<path d="M11.3335 1.33301H4.66683C2.82683 1.33301 1.3335 2.81967 1.3335 4.65301V8.63967V9.30634C1.3335 11.1397 2.82683 12.6263 4.66683 12.6263H5.66683C5.84683 12.6263 6.08683 12.7463 6.20016 12.893L7.20016 14.2197C7.64016 14.8063 8.36016 14.8063 8.80016 14.2197L9.80016 12.893C9.92683 12.7263 10.1268 12.6263 10.3335 12.6263H11.3335C13.1735 12.6263 14.6668 11.1397 14.6668 9.30634V4.65301C14.6668 2.81967 13.1735 1.33301 11.3335 1.33301ZM8.66683 9.16634H4.66683C4.3935 9.16634 4.16683 8.93967 4.16683 8.66634C4.16683 8.39301 4.3935 8.16634 4.66683 8.16634H8.66683C8.94016 8.16634 9.16683 8.39301 9.16683 8.66634C9.16683 8.93967 8.94016 9.16634 8.66683 9.16634ZM11.3335 5.83301H4.66683C4.3935 5.83301 4.16683 5.60634 4.16683 5.33301C4.16683 5.05967 4.3935 4.83301 4.66683 4.83301H11.3335C11.6068 4.83301 11.8335 5.05967 11.8335 5.33301C11.8335 5.60634 11.6068 5.83301 11.3335 5.83301Z" fill="#1C1B17"/>
</svg>
