<svg width="30" height="30" viewBox="0 0 30 30" fill="none" xmlns="http://www.w3.org/2000/svg">
<g clip-path="url(#clip0_177_30515)">
<path d="M23.3637 10.3174C23.7249 10.3035 24.1299 10.3115 24.4947 10.3116L26.4768 10.3118L27.5993 10.3109C27.8143 10.3108 28.067 10.2996 28.2716 10.3293C28.7351 10.3965 29.0555 10.7949 29.0606 11.2554C29.0644 11.5984 29.0643 11.9369 29.0638 12.2766L29.0635 14.1874L29.0638 15.3892C29.064 15.571 29.0717 15.923 29.0467 16.0872C29.019 16.2668 28.9377 16.4339 28.8138 16.5669C28.6425 16.7531 28.4192 16.8649 28.1646 16.8741C27.9158 16.8851 27.6731 16.7953 27.4912 16.6252C27.0892 16.2514 27.1975 15.7955 27.1874 15.2981C27.1752 14.7066 27.2029 14.1078 27.1849 13.5165L23.8667 16.8328L22.7751 17.9243C22.5645 18.1349 22.325 18.3647 22.125 18.5831C23.1284 19.8335 23.5642 21.641 23.3971 23.2242C23.2097 24.9589 22.3405 26.5479 20.9808 27.6414C19.8078 28.5873 18.3469 29.1044 16.84 29.1069C16.5579 29.1061 16.3214 29.0785 16.0406 29.048C15.1776 28.9671 14.1563 28.5808 13.4221 28.131C11.9352 27.221 10.8701 25.7584 10.4604 24.064C10.0494 22.357 10.336 20.5567 11.2567 19.0618C12.1677 17.5753 13.6353 16.5148 15.3327 16.1163C16.8338 15.7591 18.4128 15.941 19.7934 16.6304C20.2134 16.841 20.4274 17.0102 20.8074 17.2437C21.0762 16.9331 21.5673 16.4697 21.8703 16.167L23.8601 14.1775L25.1766 12.8601C25.334 12.7025 25.707 12.3109 25.864 12.1981C25.6652 12.1851 25.4033 12.1922 25.2016 12.1923L24.0191 12.1934C23.8056 12.1936 23.4394 12.2049 23.2424 12.1666C23.1185 12.1415 23.0016 12.0897 22.8996 12.0148C22.38 11.6377 22.3661 10.9109 22.8633 10.5039C23.0123 10.3819 23.1766 10.3418 23.3637 10.3174ZM16.9116 27.1844C19.4969 27.1636 21.5766 25.0519 21.5577 22.4666C21.5389 19.8811 19.429 17.7999 16.8435 17.8166C14.2552 17.8333 12.1711 19.9463 12.1899 22.5346C12.2087 25.1229 14.3233 27.2054 16.9116 27.1844Z" fill="#566B4D"/>
<path d="M12.723 0.913918C14.2411 0.846626 15.643 1.20808 16.8993 2.0816C18.3339 3.07845 19.3126 4.60574 19.6186 6.32577C19.9276 8.04557 19.5378 9.81755 18.5358 11.249C17.5324 12.6859 15.9988 13.665 14.2732 13.9706C12.4187 14.2937 10.7222 13.8287 9.20104 12.7568C9.01741 12.9218 8.81476 13.1337 8.63911 13.3094L7.70008 14.2497C7.05609 14.8942 6.34272 15.5789 5.71987 16.2362C5.72857 16.2441 5.73722 16.252 5.74581 16.2601C5.99011 16.4874 6.258 16.7738 6.49993 17.0095C6.67064 17.1757 7.08013 17.567 7.19449 17.7507C7.27779 17.886 7.32398 18.041 7.32842 18.2C7.33633 18.4526 7.24176 18.6977 7.06619 18.8796C6.88789 19.0636 6.65207 19.1704 6.39566 19.1689C5.97817 19.1665 5.77611 18.9489 5.50599 18.676L5.12355 18.2921C4.93543 18.102 4.57202 17.7173 4.38054 17.5647C4.31869 17.6348 4.24873 17.7021 4.18239 17.7683C3.64606 18.3041 3.111 18.8413 2.57317 19.3756C2.35986 19.5875 2.14395 19.7064 1.83723 19.6976C1.58507 19.6918 1.34594 19.5844 1.17402 19.3998C0.809889 19.0087 0.864921 18.4175 1.23772 18.0527C1.84759 17.4563 2.43752 16.8201 3.06048 16.2384C2.97102 16.1294 2.78857 15.956 2.68351 15.8511L2.02026 15.19C1.85973 15.0297 1.68153 14.8711 1.56818 14.6722C1.50823 14.5669 1.48195 14.4453 1.47363 14.3253C1.45498 14.0564 1.53393 13.8109 1.71344 13.6089C1.87738 13.4243 2.09561 13.3251 2.34045 13.312C2.48857 13.304 2.65026 13.3231 2.78519 13.3873C3.14265 13.5574 4.02831 14.5677 4.398 14.8975C4.84981 14.424 5.3425 13.9447 5.80652 13.4807L7.87265 11.4199C7.15225 10.5138 6.70472 9.25036 6.59277 8.1051C6.43102 6.38098 6.95283 4.66228 8.04581 3.3191C8.99696 2.1512 10.3218 1.34712 11.7969 1.0425C12.1242 0.974268 12.3903 0.946045 12.723 0.913918ZM13.2203 12.1826C15.8052 12.1287 17.8576 9.99087 17.806 7.406C17.7543 4.82116 15.6183 2.7669 13.0333 2.8163C10.4453 2.86574 8.38801 5.00501 8.43969 7.59301C8.49136 10.181 10.6324 12.2365 13.2203 12.1826Z" fill="#566B4D"/>
</g>
<defs>
<clipPath id="clip0_177_30515">
<rect width="30" height="30" fill="white"/>
</clipPath>
</defs>
</svg>
