<svg width="20" height="20" viewBox="0 0 20 20" fill="none" xmlns="http://www.w3.org/2000/svg">
<path d="M1.66699 10.0003C1.66699 6.07195 1.66699 4.10777 2.88738 2.88738C4.10777 1.66699 6.07195 1.66699 10.0003 1.66699C13.9287 1.66699 15.8929 1.66699 17.1133 2.88738C18.3337 4.10777 18.3337 6.07195 18.3337 10.0003C18.3337 13.9287 18.3337 15.8929 17.1133 17.1133C15.8929 18.3337 13.9287 18.3337 10.0003 18.3337C6.07195 18.3337 4.10777 18.3337 2.88738 17.1133C1.66699 15.8929 1.66699 13.9287 1.66699 10.0003Z" stroke="#1C1B17" stroke-width="1.25"/>
<path d="M8.4375 7.39551C8.4375 6.53256 9.13706 5.83301 10 5.83301C10.8629 5.83301 11.5625 6.53256 11.5625 7.39551C11.5625 7.96838 11.2542 8.46924 10.7945 8.74124C10.3984 8.97559 10 9.3311 10 9.79134V10.833" stroke="#1C1B17" stroke-width="1.25" stroke-linecap="round"/>
<circle cx="10.0003" cy="13.3333" r="0.833333" fill="#1C1B17"/>
</svg>
