<svg width="67" height="74" viewBox="0 0 67 74" fill="none" xmlns="http://www.w3.org/2000/svg">
<path d="M28.7748 74C28.63 74 28.5123 73.9683 28.4219 73.905C28.3314 73.8416 28.2861 73.7466 28.2861 73.62C28.2861 73.5295 28.3314 73.448 28.4219 73.3756C28.5123 73.3033 28.6481 73.258 28.8291 73.2399L32.8467 72.697C33.5163 72.6065 33.9732 72.4074 34.2175 72.0998C34.4618 71.7921 34.584 71.3487 34.584 70.7696V5.40205L44.6009 0.407188C44.7276 0.334801 44.8678 0.275986 45.0216 0.230736C45.1755 0.185493 45.2976 0.162872 45.3881 0.162872C45.5329 0.162872 45.6505 0.208115 45.741 0.298607C45.8315 0.389091 45.8767 0.524818 45.8767 0.705795V70.8782C45.8767 71.403 45.9944 71.8238 46.2296 72.1405C46.4649 72.4572 46.8178 72.6608 47.2883 72.7513L50.4373 73.2399C50.6544 73.2761 50.7992 73.3259 50.8716 73.3892C50.944 73.4526 50.9802 73.5385 50.9802 73.6471C50.9802 73.7557 50.9395 73.8416 50.858 73.905C50.7766 73.9683 50.6635 74 50.5187 74H28.7748ZM36.2128 40.719C34.204 43.506 31.8649 45.6867 29.1955 47.2612C26.5262 48.8357 23.3818 49.6229 19.7623 49.6229C15.8714 49.6229 12.4374 48.6773 9.46038 46.7861C6.48337 44.895 4.16239 42.2256 2.49743 38.7781C0.832477 35.3305 0 31.2631 0 26.5759C0 21.4001 0.972732 16.8169 2.9182 12.8265C4.86366 8.83602 7.53754 5.70066 10.9398 3.42039C14.3421 1.14013 18.2059 0 22.5312 0C26.0783 0 28.9286 0.619835 31.0822 1.8595C33.2358 3.09917 34.9188 4.87723 36.1313 7.19369L35.3169 7.65517C34.3397 5.71876 33.0729 4.19858 31.5165 3.09464C29.9601 1.99071 27.8699 1.43874 25.2458 1.43874C22.5131 1.43874 20.1152 2.23049 18.0521 3.81401C15.989 5.39753 14.3829 7.88139 13.2337 11.2656C12.0845 14.6498 11.5099 19.0474 11.5099 24.4585C11.5099 29.6344 12.0257 33.9008 13.0572 37.2579C14.0888 40.6149 15.5592 43.0988 17.4685 44.7095C19.3777 46.3201 21.6625 47.1255 24.3228 47.1255C26.3678 47.1255 28.3766 46.5373 30.3492 45.361C32.3218 44.1846 34.0954 42.4202 35.6698 40.0675L36.2128 40.719Z" fill="#566B4D"/>
<path d="M60.0973 48.5371C63.6733 48.5371 66.5723 45.6381 66.5723 42.0621C66.5723 38.4861 63.6733 35.5871 60.0973 35.5871C56.5213 35.5871 53.6223 38.4861 53.6223 42.0621C53.6223 45.6381 56.5213 48.5371 60.0973 48.5371Z" fill="#BB5836"/>
</svg>
