<svg width="24" height="24" viewBox="0 0 24 24" fill="none" xmlns="http://www.w3.org/2000/svg">
<path d="M16.42 7.95C18.86 10.39 18.86 14.35 16.42 16.79C13.98 19.23 10.02 19.23 7.58 16.79C5.14 14.35 5.14 10.39 7.58 7.95C10.02 5.51 13.98 5.51 16.42 7.95Z" fill="#566B4D"/>
<path d="M8.25003 22.39C8.16003 22.39 8.06003 22.37 7.97003 22.34C5.72003 21.44 3.90003 19.85 2.68003 17.75C1.50003 15.7 1.03003 13.38 1.34003 11.02C1.39003 10.61 1.78003 10.32 2.18003 10.37C2.59003 10.42 2.88003 10.8 2.83003 11.21C2.57003 13.24 2.97003 15.24 3.98003 17C5.02003 18.8 6.59003 20.17 8.52003 20.94C8.90003 21.1 9.09003 21.53 8.94003 21.92C8.83003 22.21 8.54003 22.39 8.25003 22.39Z" fill="#566B4D"/>
<path d="M5.8501 5.23035C5.6301 5.23035 5.41011 5.13035 5.26011 4.94035C5.00011 4.62035 5.0601 4.15035 5.3901 3.89035C7.2901 2.40035 9.5801 1.61035 12.0001 1.61035C14.3601 1.61035 16.6101 2.37035 18.5001 3.81035C18.8301 4.06035 18.8901 4.53035 18.6401 4.86035C18.3901 5.19035 17.9201 5.25035 17.5901 5.00035C15.9601 3.76035 14.0301 3.11035 12.0001 3.11035C9.9201 3.11035 7.9501 3.79035 6.3101 5.07035C6.1701 5.18035 6.0101 5.23035 5.8501 5.23035Z" fill="#566B4D"/>
<path d="M15.7502 22.3896C15.4502 22.3896 15.1702 22.2096 15.0502 21.9196C14.9002 21.5396 15.0802 21.0996 15.4702 20.9396C17.4002 20.1596 18.9702 18.7996 20.0102 16.9996C21.0302 15.2396 21.4302 13.2396 21.1602 11.2196C21.1102 10.8096 21.4002 10.4296 21.8102 10.3796C22.2102 10.3296 22.6002 10.6196 22.6502 11.0296C22.9502 13.3796 22.4902 15.7096 21.3102 17.7596C20.1002 19.8596 18.2702 21.4396 16.0202 22.3496C15.9402 22.3696 15.8502 22.3896 15.7502 22.3896Z" fill="#566B4D"/>
</svg>
