<svg width="20" height="20" viewBox="0 0 20 20" fill="none" xmlns="http://www.w3.org/2000/svg">
<path d="M8.33398 15.8333C8.33398 16.75 9.08398 17.5 10.0007 17.5C10.9173 17.5 11.6673 16.75 11.6673 15.8333C11.6673 14.9167 10.9173 14.1667 10.0007 14.1667C9.08398 14.1667 8.33398 14.9167 8.33398 15.8333Z" fill="#1C1B17"/>
<path d="M8.33398 4.16732C8.33398 5.08398 9.08398 5.83398 10.0007 5.83398C10.9173 5.83398 11.6673 5.08398 11.6673 4.16732C11.6673 3.25065 10.9173 2.50065 10.0007 2.50065C9.08398 2.50065 8.33398 3.25065 8.33398 4.16732Z" fill="#1C1B17"/>
<path d="M8.33398 10.0003C8.33398 10.917 9.08398 11.667 10.0007 11.667C10.9173 11.667 11.6673 10.917 11.6673 10.0003C11.6673 9.08366 10.9173 8.33366 10.0007 8.33366C9.08398 8.33366 8.33398 9.08366 8.33398 10.0003Z" fill="#1C1B17"/>
</svg>
