<svg width="16" height="16" viewBox="0 0 16 16" fill="none" xmlns="http://www.w3.org/2000/svg">
<path d="M12.0933 14.4132C11.5067 14.5865 10.8133 14.6665 10 14.6665H6C5.18666 14.6665 4.49333 14.5865 3.90666 14.4132C4.05333 12.6798 5.83333 11.3132 8 11.3132C10.1667 11.3132 11.9467 12.6798 12.0933 14.4132Z" stroke="#1C1B17" stroke-linecap="round" stroke-linejoin="round"/>
<path d="M10 1.33333H6C2.66666 1.33333 1.33333 2.66666 1.33333 6V10C1.33333 12.52 2.09333 13.9 3.90666 14.4133C4.05333 12.68 5.83333 11.3133 8 11.3133C10.1667 11.3133 11.9467 12.68 12.0933 14.4133C13.9067 13.9 14.6667 12.52 14.6667 10V6C14.6667 2.66666 13.3333 1.33333 10 1.33333ZM8 9.44665C6.68 9.44665 5.61333 8.37334 5.61333 7.05334C5.61333 5.73334 6.68 4.66666 8 4.66666C9.32 4.66666 10.3867 5.73334 10.3867 7.05334C10.3867 8.37334 9.32 9.44665 8 9.44665Z" stroke="#1C1B17" stroke-linecap="round" stroke-linejoin="round"/>
<path d="M10.3867 7.05335C10.3867 8.37335 9.32001 9.44666 8.00001 9.44666C6.68001 9.44666 5.61334 8.37335 5.61334 7.05335C5.61334 5.73335 6.68001 4.66667 8.00001 4.66667C9.32001 4.66667 10.3867 5.73335 10.3867 7.05335Z" stroke="#1C1B17" stroke-linecap="round" stroke-linejoin="round"/>
</svg>
