<svg width="9" height="2" viewBox="0 0 9 2" fill="none" xmlns="http://www.w3.org/2000/svg">
<path d="M1.66667 0.833333C1.66667 1.29357 1.29357 1.66667 0.833333 1.66667C0.373096 1.66667 0 1.29357 0 0.833333C0 0.373096 0.373096 0 0.833333 0C1.29357 0 1.66667 0.373096 1.66667 0.833333Z" fill="#1C1B17"/>
<path d="M5 0.833333C5 1.29357 4.6269 1.66667 4.16667 1.66667C3.70643 1.66667 3.33333 1.29357 3.33333 0.833333C3.33333 0.373096 3.70643 0 4.16667 0C4.6269 0 5 0.373096 5 0.833333Z" fill="#1C1B17"/>
<path d="M8.33333 0.833333C8.33333 1.29357 7.96024 1.66667 7.5 1.66667C7.03976 1.66667 6.66667 1.29357 6.66667 0.833333C6.66667 0.373096 7.03976 0 7.5 0C7.96024 0 8.33333 0.373096 8.33333 0.833333Z" fill="#1C1B17"/>
</svg>
